<svg xmlns="http://www.w3.org/2000/svg" xmlns:xlink="http://www.w3.org/1999/xlink" id="Capa_1" x="0" y="0" version="1.1" viewBox="0 0 480 480" xml:space="preserve" style="enable-background:new 0 0 480 480"><rect style="fill:#dadda4" width="336" height="32" x="120" y="399.99"/><g><rect style="fill:#d3d3d3" width="368" height="32" x="104" y="431.99"/><rect style="fill:#d3d3d3" width="160" height="32" x="312" y="159.99"/></g><rect style="fill:#e9eccf" width="136" height="208" x="312" y="191.99"/><rect style="fill:#76b82b" width="288" height="168" x="8" y="191.99"/><path style="fill:#b5d676" d="M264,319.99v-80c-8.837,0-16-7.163-16-16H56c0,8.837-7.163,16-16,16v80c8.837,0,16,7.163,16,16h192	C248,327.154,255.163,319.99,264,319.99z"/><g><path style="fill:#fbf7ed" d="M272,263.99v-24c0-4.422-3.582-8-8-8c-4.41,0-8-3.586-8-8c0-4.422-3.582-8-8-8h-24v16h17.371 c2.414,6.813,7.82,12.219,14.629,14.633v17.367H272z"/><path style="fill:#fbf7ed" d="M272,319.99v-24h-16v17.367c-6.809,2.414-12.215,7.82-14.629,14.633H224v16h24c4.418,0,8-3.578,8-8 c0-4.414,3.59-8,8-8C268.418,327.99,272,324.412,272,319.99z"/><rect style="fill:#fbf7ed" width="16" height="16" x="232" y="271.99"/><path style="fill:#fbf7ed" d="M32,263.99v-24c0-4.422,3.582-8,8-8c4.41,0,8-3.586,8-8c0-4.422,3.582-8,8-8h24v16H62.629 c-2.414,6.813-7.82,12.219-14.629,14.633v17.367H32z"/><path style="fill:#fbf7ed" d="M32,319.99v-24h16v17.367c6.809,2.414,12.215,7.82,14.629,14.633H80v16H56c-4.418,0-8-3.578-8-8 c0-4.414-3.59-8-8-8C35.582,327.99,32,324.412,32,319.99z"/><rect style="fill:#fbf7ed" width="16" height="16" x="56" y="271.99"/><circle style="fill:#fbf7ed" cx="152" cy="279.99" r="56"/></g><path style="fill:#4c7464" d="M144,295.99h-16v16c0,4.422,3.582,8,8,8h8v8h16v-8h8c4.418,0,8-3.578,8-8v-32c0-4.422-3.582-8-8-8	h-24v-16h16v8h16v-16c0-4.422-3.582-8-8-8h-8v-8h-16v8h-8c-4.418,0-8,3.578-8,8v32c0,4.422,3.582,8,8,8h24v16h-16V295.99z"/><g><polygon style="fill:#e0cb07" points="344 239.99 360 255.99 344 255.99"/><polygon style="fill:#e0cb07" points="320 271.99 320 303.99 360 303.99 360 335.99 344 351.99 344 319.99 304 319.99 304 271.99"/></g><polygon style="fill:#fcee21" points="344 255.99 360 255.99 360 223.99 416 279.99 400 295.99 360 335.99 360 303.99 320 303.99 320 271.99 320 255.99"/><rect style="fill:#dadda4" width="144" height="16" x="312" y="191.99"/><g><rect style="fill:#fcee21" width="16" height="40" x="408" y="335.99"/><rect style="fill:#fcee21" width="16" height="16" x="376" y="359.99"/><rect style="fill:#fcee21" width="16" height="32" x="320" y="343.99"/></g><g><polygon style="fill:#e6e6e6" points="180.64 92.63 202.88 114.87 224 135.99 224 159.99 456 159.99 456 135.99 288 15.99"/><polygon style="fill:#e6e6e6" points="128 135.99 128 159.99 184 159.99 160 135.99"/></g><g><path style="fill:#d3d3d3" d="M312,127.99h80l-66.56-46.08c1.68,4.4,2.56,9.12,2.56,14.08C328,109.03,321.68,120.71,312,127.99z"/><path style="fill:#d3d3d3" d="M202.88,114.87L216,127.99h48c-9.68-7.28-16-18.96-16-32c0-4.96,0.88-9.68,2.56-14.08L202.88,114.87 z"/></g><rect style="fill:#4c7464" width="288" height="24" x="8" y="359.99"/><g><polygon style="fill:#d89868" points="136 207.99 152 207.99 152 223.99 120 223.99 56 159.99 8 159.99 8 119.99 48 119.99"/><polygon style="fill:#d89868" points="160 111.99 200 143.99 200 191.99 184 191.99 184 159.99 160 135.99 128 135.99 128 111.99"/></g><polygon style="fill:#dfb28b" points="168 79.99 180.64 92.63 202.88 114.87 224 135.99 224 191.99 200 191.99 200 143.99 160 111.99 128 111.99 128 135.99 128 151.99 128 167.99 152 191.99 152 207.99 136 207.99 48 119.99 8 119.99 8 79.99"/><path d="M224,231.99h17.371c2.414,6.813,7.82,12.219,14.629,14.633v17.367h16v-24c0-4.422-3.582-8-8-8c-4.41,0-8-3.586-8-8	c0-4.422-3.582-8-8-8h-24V231.99z"/><path d="M256,313.357c-6.809,2.414-12.215,7.82-14.629,14.633H224v16h24c4.418,0,8-3.578,8-8c0-4.414,3.59-8,8-8	c4.418,0,8-3.578,8-8v-24h-16V313.357z"/><path d="M48,223.99c0,4.414-3.59,8-8,8c-4.418,0-8,3.578-8,8v24h16v-17.367c6.809-2.414,12.215-7.82,14.629-14.633H80v-16H56	C51.582,215.99,48,219.568,48,223.99z"/><path d="M48,313.357V295.99H32v24c0,4.422,3.582,8,8,8c4.41,0,8,3.586,8,8c0,4.422,3.582,8,8,8h24v-16H62.629	C60.215,321.177,54.809,315.771,48,313.357z"/><path d="M181.242,216.943l-7.586,14.094c18.309,9.859,29.242,28.156,29.242,48.953s-10.934,39.094-29.242,48.953l7.586,14.094	c23.578-12.703,37.656-36.266,37.656-63.047S204.82,229.646,181.242,216.943z"/><rect width="16" height="16" x="232" y="271.99"/><rect width="16" height="16" x="56" y="271.99"/><path d="M464,223.99v-24h8c4.4,0,8-3.6,8-8v-32c0-4.4-3.6-8-8-8h-8v-16c0-2.56-1.28-5.04-3.36-6.48l-168-120c-2.8-2-6.48-2-9.28,0	L181.52,82.15l-7.84-7.84c-1.52-1.44-3.52-2.32-5.68-2.32H8c-4.4,0-8,3.6-8,8v80c0,4.4,3.6,8,8,8h44.72l16,16H8c-4.4,0-8,3.6-8,8	v176c0,4.4,3.6,8,8,8h288c4.4,0,8-3.6,8-8v-176c0-4.4-3.6-8-8-8h-64v-16h232v16H320v16h128v16h-48v16h40v160H120c-4.4,0-8,3.6-8,8	v24h-8c-4.4,0-8,3.6-8,8v32c0,4.4,3.6,8,8,8h368c4.4,0,8-3.6,8-8v-32c0-4.4-3.6-8-8-8h-8v-24c0-4.4-3.6-8-8-8v-160	C460.4,231.99,464,228.39,464,223.99z M61.68,154.31c-1.52-1.44-3.52-2.32-5.68-2.32H16v-64h148.72l10.24,10.32l35.36,35.36	l5.68,5.6v44.72h-24v-24c0-0.16-0.08-0.32-0.08-0.48c-0.08-0.72-0.24-1.44-0.4-2.08c-0.08-0.24-0.16-0.48-0.32-0.72	c-0.4-0.88-0.88-1.68-1.52-2.4l-24-24c-1.52-1.44-3.52-2.32-5.68-2.32h-32c-4.4,0-8,3.6-8,8v32c0,2.16,0.88,4.16,2.32,5.68	l21.68,21.6v20.72h-20.72l-29.6-29.68L61.68,154.31z M139.28,167.99H176v16h-20.72L139.28,167.99z M136,151.99v-8h20.72l8,8H136z M288,199.99v160H16v-160h68.72l26.88,26.88C96.64,240.23,88,259.11,88,279.99c0,26.8,14.08,50.32,37.68,63.04l7.6-14.08	c-18.32-9.84-29.28-28.16-29.28-48.96c0-20.16,10.4-37.92,27.76-48H144v8h-8c-4.4,0-8,3.6-8,8v32c0,4.4,3.6,8,8,8h24v16h-16v-8h-16	v16c0,4.4,3.6,8,8,8h8v8h16v-8h8c4.4,0,8-3.6,8-8v-32c0-4.4-3.6-8-8-8h-24v-16h16v8h16v-16c0-4.4-3.6-8-8-8h-8v-40H288z M219.28,119.99l-3.92-4l24.72-17.12c0.48,7.44,2.72,14.72,6.4,21.12H219.28z M448,151.99H232v-16h32c3.44,0,6.48-2.24,7.6-5.44	c1.04-3.28-0.08-6.88-2.8-8.96c-8-6-12.8-15.6-12.8-25.6c0-3.92,0.72-7.68,2-11.2c1.28-3.28,0.24-7.04-2.48-9.2	c-2.8-2.16-6.64-2.24-9.52-0.24l-42.16,29.12l-10.88-10.8L288,25.83l160,114.24V151.99z M128,407.99h320v16H128V407.99z M464,439.99	v16H112v-16H464z"/><path d="M360,295.99h-40v16h32v24c0,3.234,1.949,6.156,4.938,7.391c0.992,0.414,2.031,0.609,3.063,0.609	c2.082,0,4.125-0.813,5.656-2.344l56-56c3.125-3.125,3.125-8.188,0-11.313l-56-56c-2.293-2.289-5.73-2.984-8.719-1.734	c-2.988,1.234-4.938,4.156-4.938,7.391v24h-32v16h40c4.418,0,8-3.578,8-8v-12.688l36.688,36.688L368,316.677V303.99	C368,299.568,364.418,295.99,360,295.99z"/><rect width="16" height="40" x="408" y="335.99"/><rect width="16" height="16" x="376" y="359.99"/><rect width="16" height="32" x="320" y="343.99"/><path d="M312,135.99h80c3.5,0,6.594-2.273,7.637-5.617c1.043-3.336-0.207-6.969-3.082-8.961l-66.559-46.078	c-2.887-2-6.73-1.883-9.492,0.281c-2.758,2.164-3.789,5.875-2.535,9.148C319.316,88.295,320,92.076,320,95.99	c0,10-4.789,19.57-12.809,25.609c-2.75,2.063-3.871,5.664-2.777,8.93C305.504,133.787,308.559,135.99,312,135.99z M335.91,98.888	l30.48,21.102h-36.859C333.227,113.584,335.449,106.357,335.91,98.888z"/></svg>